<mxfile host="app.diagrams.net" modified="2024-03-24T19:09:13.206Z" agent="Mozilla/5.0 (Windows NT 10.0; Win64; x64) AppleWebKit/537.36 (KHTML, like Gecko) Chrome/122.0.0.0 Safari/537.36" version="24.1.0" etag="CtynO3hJd4th13Q2dHMm" type="github">
  <diagram name="Page-1" id="7Ty0RbvPXSEFmSJPhZtZ">
    <mxGraphModel>
      <root>
        <mxCell id="0" />
        <mxCell id="1" parent="0" />
      </root>
    </mxGraphModel>
  </diagram>
</mxfile>
